<?xml version="1.0" standalone="no"?>
<!DOCTYPE svg PUBLIC "-//W3C//DTD SVG 1.1//EN" "http://www.w3.org/Graphics/SVG/1.1/DTD/svg11.dtd" >
<svg xmlns="http://www.w3.org/2000/svg">
<metadata>Generated by IcoMoon</metadata>
<defs>
<font id="icomoon" horiz-adv-x="1024">
<font-face units-per-em="1024" ascent="960" descent="-64" />
<missing-glyph horiz-adv-x="1024" />
<glyph unicode="&#x20;" horiz-adv-x="512" d="" />
<glyph unicode="&#xe900;" glyph-name="contract" horiz-adv-x="939" d="M255.523 957.409c-7.499-3.409-13.499-11.044-16.226-21.134-6.818-24.271-23.452-42.678-46.223-51.132-4.363-1.636-13.908-3.545-20.998-4.227-16.499-1.5-23.589-5.454-29.179-16.226l-3.818-7.227v-36.542c0-23.589 0.545-38.042 1.5-41.042 2.591-7.499 7.499-12.953 15.135-16.771l7.090-3.545h185.302c136.761 0 186.802 0.409 190.619 1.636 7.363 2.182 15.544 9.545 18.271 16.499 1.909 4.909 2.045 11.454 1.773 44.86l-0.409 38.997-4.091 5.999c-5.454 7.772-16.226 13.362-25.77 13.362-3.818 0-10.772 0.954-15.544 2.045-25.361 5.999-44.996 24.816-52.904 50.859-3.818 12.544-8.726 19.226-17.044 23.589-5.045 2.454-8.726 2.591-93.537 2.591-83.038 0-88.628-0.273-93.946-2.591zM70.221 839.056c-30.406-7.363-54.132-27.952-65.721-56.995l-3.818-9.545v-767.659l3.681-9.408c8.59-21.407 24.68-39.133 44.042-48.677 20.862-10.226-3.409-9.408 300.655-9.408 237.252 0 274.476 0.273 281.975 2.045 24.68 5.863 47.723 24.543 59.040 47.859 2.863 5.999 5.318 11.999 5.318 13.226 0 1.5-1.909 2.727-5.727 3.681-42.269 10.908-94.492 37.633-131.988 67.63-14.862 11.999-43.087 40.224-55.086 55.086-46.223 57.677-74.448 127.216-81.129 199.073-0.954 9.408-1.5 55.086-1.5 114.535 0 110.99 0 109.627 9.681 129.534 4.5 9.136 8.045 13.908 16.771 22.634 17.589 17.589 32.179 24.134 58.495 26.589 25.225 2.318 32.315 7.090 44.042 30.134 9.136 17.726 23.862 32.588 40.36 40.496 17.998 8.726 24.407 9.681 70.357 9.681h39.815v29.179c0 35.179-1.636 45.678-9.681 61.904-6.409 12.953-18.817 27.27-30.952 35.179-9.408 6.272-24.543 12.272-34.088 13.635l-7.090 0.954v-31.361c0-35.315-0.818-40.905-9.408-58.358-10.226-20.589-29.861-37.633-52.495-45.269l-11.044-3.818h-391.329l-11.726 4.227c-27.407 9.817-47.041 29.452-56.859 56.722-3.272 9.545-3.545 11.454-4.091 43.769l-0.545 33.679-3.545-0.136c-2.045-0.136-4.909-0.409-6.409-0.818zM303.655 655.118c8.59-5.045 13.090-12.544 13.772-22.907 0.409-6.681 0-9.681-2.182-13.908-1.636-3.136-28.361-30.815-63.949-66.267-63.813-63.54-64.085-63.813-75.266-63.813-10.499 0-13.499 2.318-46.905 35.315-17.998 17.726-33.815 34.633-35.451 37.633-9.136 17.453 3.136 39.678 22.771 41.315 12.817 1.091 15.953-0.818 38.724-23.316l20.725-20.589 48.814 48.677c26.861 26.725 49.087 48.677 49.359 48.677 0.409 0 3.136 0.954 6.136 2.045 7.090 2.727 15.817 1.636 23.452-2.863zM301.064 443.364c14.726-7.636 20.862-24.543 13.772-38.724-3.954-7.908-118.353-122.307-126.262-126.262-7.227-3.545-16.908-3.681-24.271-0.273-3.409 1.636-17.317 14.453-37.769 35.042-38.042 38.315-39.815 41.315-34.497 56.586 4.091 11.317 16.089 20.316 27.27 20.316 9.954 0 16.499-4.5 37.088-24.952l19.498-19.226 48.132 47.859c29.179 29.316 49.905 48.814 52.768 50.041 6.818 3 18.135 2.727 24.271-0.409zM299.701 231.065c14.726-6.136 21.953-23.725 15.953-38.451-2.591-6.136-117.126-121.489-125.443-126.398-7.772-4.5-13.908-5.181-22.498-2.591-6.954 2.045-9.681 4.363-38.587 33.133-31.361 30.952-36.815 37.633-38.451 46.632-3.545 18.953 16.089 36.951 35.315 32.452 6.409-1.5 8.59-3.272 28.497-22.907l21.407-21.271 48.814 48.677c30.134 30.134 50.45 49.496 53.45 50.723 6.272 2.727 15.135 2.727 21.544 0zM618.354 639.438c-7.363-2.045-13.635-8.726-20.316-21.407-18.544-34.77-45.132-52.904-83.038-56.313-15.953-1.364-22.225-3.681-28.497-10.363-8.181-8.59-7.908-4.909-7.908-112.081 0-58.086 0.545-103.764 1.364-112.081 7.090-70.221 39.133-137.17 89.992-188.165 31.361-31.497 73.63-58.086 115.899-72.948 18.953-6.545 26.316-6.681 43.632-0.682 43.632 15.271 81.402 38.451 114.399 70.357 48.268 46.769 79.493 105.536 90.674 170.576 4.227 24.952 5.045 48.132 4.636 140.987l-0.409 92.037-3.818 6.545c-5.454 9.272-12.135 13.226-25.089 14.726-22.907 2.727-32.315 5.181-45.405 11.59-11.044 5.454-14.726 8.181-25.225 18.817-9.954 10.090-13.772 15.135-19.907 26.725-6.545 12.408-8.454 14.862-14.181 18.407l-6.545 4.091-88.083 0.273c-48.405 0.136-89.856-0.409-92.174-1.091zM804.201 434.228c14.726-6.136 21.953-23.725 15.953-38.451-2.591-6.136-117.126-121.489-125.443-126.398-7.772-4.5-13.908-5.181-22.498-2.591-6.954 2.045-9.681 4.363-38.587 33.133-31.361 30.952-36.815 37.633-38.451 46.632-3.545 18.953 16.089 36.951 35.315 32.452 6.409-1.5 8.59-3.272 28.497-22.907l21.407-21.271 48.814 48.677c30.134 30.134 50.45 49.496 53.45 50.723 6.272 2.727 15.135 2.727 21.544 0z" />
<glyph unicode="&#xe901;" glyph-name="date" horiz-adv-x="1098" d="M209.697 957.922c-25.526-6.233-46.896-26.861-54.465-52.684-3.562-11.872-3.562-190.85-0.148-204.206 3.265-12.466 9.053-22.409 19.293-32.798 35.914-36.656 98.541-26.565 120.951 19.441 3.413 6.975 6.53 15.879 7.42 21.519s1.484 44.819 1.484 94.98c0 93.792-0.297 97.799-8.904 115.311s-28.197 32.946-48.232 38.289c-10.388 2.671-26.565 2.671-37.398 0.148zM667.974 957.626c-27.9-7.42-50.31-31.759-54.91-59.511-1.187-7.123-1.632-37.547-1.336-101.361 0.445-90.082 0.594-91.418 3.71-100.026 4.452-11.427 8.459-17.809 17.215-27.158 14.989-15.879 31.759-23.151 54.465-23.3 10.982 0 16.325 0.742 24.19 3.413 24.784 8.311 42.741 27.603 49.419 52.832 3.117 11.724 2.968 189.663-0.148 201.832-6.827 26.119-30.275 48.529-56.839 54.020-10.685 2.226-25.971 1.929-35.766-0.742zM0.445 475.9l0.445-338.81 3.117-13.653c11.279-47.193 31.017-83.107 64.26-116.35 41.108-41.257 89.192-63.369 148.109-68.267 22.558-1.781 478.757-1.187 480.686 0.594 0.594 0.742 0 1.929-1.484 2.671-6.085 3.413-26.416 20.925-38.437 32.946-20.628 20.777-44.819 54.91-54.762 77.468l-2.968 6.53-383.481 0.89-11.13 3.413c-40.070 12.318-69.306 41.85-80.584 81.475l-3.265 11.576-0.445 198.567-0.445 198.419h675.395v-100.471l13.802 2.82c20.183 4.155 66.189 5.343 87.856 2.078 9.053-1.336 16.918-2.374 17.512-2.374s1.039 80.881 1.039 179.571v179.571h-108.039l-0.594-54.465c-0.742-49.864-1.039-55.652-4.007-66.486-10.537-39.624-38.289-70.196-75.242-83.701-43.334-15.731-88.598-5.936-122.732 26.416-14.989 14.247-25.081 30.72-32.352 52.832-3.265 9.943-3.413 12.614-4.007 67.97l-0.445 57.433h-220.828l-0.594-56.691c-0.594-62.627-0.742-63.814-10.834-85.482-12.169-26.565-32.352-46.599-58.917-58.917-66.783-30.868-144.696 6.678-164.582 79.1-2.82 10.388-3.265 16.176-3.859 66.783l-0.594 55.207h-108.039l0.445-338.662zM203.316 474.565c-8.162-3.71-15.583-10.537-19.738-18.402-3.117-5.639-3.265-8.014-3.71-50.903-0.445-49.864 0-54.020 8.608-64.408 2.523-2.968 8.311-7.272 13.060-9.646l8.459-4.155h45.264c50.458 0 50.755 0 62.034 10.388 3.413 2.968 7.569 8.459 9.498 12.318 3.413 6.827 3.413 7.866 3.413 52.981v46.006l-4.452 8.162c-4.897 8.904-14.247 16.918-22.706 19.293-3.265 0.89-23.597 1.484-49.271 1.484-40.812 0-44.225-0.297-50.458-3.117zM408.858 475.752c-11.576-4.452-20.332-13.060-24.339-23.745-1.039-2.671-1.632-21.37-1.632-49.716 0-44.522 0.148-45.709 3.562-52.981 3.71-8.162 11.279-15.583 19.886-19.59 4.897-2.374 10.834-2.671 51.497-2.671h46.006l7.569 4.007c8.756 4.601 14.692 10.982 18.699 20.035 2.523 5.788 2.82 9.943 2.374 52.684-0.445 41.108-0.742 47.045-3.117 51.794-3.859 7.717-11.13 14.692-19.59 18.551-7.272 3.413-8.311 3.562-51.942 3.413-30.275 0-46.006-0.594-48.974-1.781zM610.987 475.603c-11.724-4.304-20.628-13.802-24.19-25.674-3.117-10.388-2.968-84.591 0.297-95.277 3.117-10.685 13.357-20.925 24.19-24.635 7.569-2.523 8.014-2.523 9.35 0 4.749 8.162 25.081 33.094 36.953 45.115 20.48 20.48 48.529 41.405 72.274 53.426 5.639 2.82 6.233 3.71 6.233 8.756 0 14.544-8.904 29.681-21.37 36.359-5.788 3.117-7.717 3.265-52.090 3.562-35.914 0.297-47.193 0-51.645-1.632zM832.557 411.492c-25.229-3.117-56.543-12.466-79.249-23.893-133.417-66.931-172.596-238.785-81.92-358.103 17.067-22.261 45.412-46.748 71.68-61.737 79.991-45.561 185.952-38.734 259.117 16.77 46.451 35.172 77.319 83.552 90.379 141.728 2.968 13.505 3.413 19.144 3.413 48.677s-0.445 35.172-3.413 48.677c-21.222 94.98-92.012 165.176-185.656 184.468-13.802 2.968-60.846 5.046-74.351 3.413zM844.429 335.954c0-11.724 0.297-12.911 4.155-16.918 6.085-6.678 16.176-6.827 22.706-0.297 4.155 4.155 4.304 5.046 4.304 17.067v12.763h4.897c8.162 0 34.282-6.975 48.083-12.911 35.766-15.434 68.415-45.857 86.075-79.842 9.498-18.551 14.841-35.321 18.848-59.659l0.89-4.897h-12.021c-17.363 0-23.597-4.601-23.597-17.067 0-3.562 1.336-6.678 4.304-9.943 4.155-4.749 4.749-4.897 17.809-5.343l13.357-0.594-0.742-4.601c-6.975-42.147-21.222-71.532-48.232-99.729-24.932-25.971-55.949-43.038-91.566-50.458-18.848-3.859-18.106-4.304-18.106 10.24 0 11.279-0.445 13.060-3.859 17.067-6.381 7.569-17.067 7.569-24.19 0-2.671-2.968-3.117-5.194-3.117-16.621v-13.357l-9.053 1.039c-22.261 2.523-49.568 13.060-71.383 27.603-42.147 27.9-70.493 72.422-77.616 122.138l-1.039 6.975h11.576c9.053 0 12.763 0.742 16.621 2.968 8.756 5.343 10.388 16.325 3.413 24.042-4.304 4.749-4.749 4.897-17.957 5.491l-13.653 0.445 1.039 6.975c10.24 71.828 64.557 131.042 135.049 147.070 6.53 1.484 14.395 2.82 17.512 2.82l5.491 0.148v-12.614zM779.872 293.658c-8.608-4.304-11.724-9.35-12.318-20.035-0.594-10.24-3.71-4.897 31.462-54.465l20.628-29.088 0.148-13.95c0.148-15.583 2.374-21.964 10.982-30.572 7.866-7.717 16.918-11.279 29.236-11.279 12.466 0.148 18.996 2.671 27.9 10.834l6.53 6.085h29.236c32.946 0 36.508 0.742 43.334 9.646 3.562 4.749 4.304 7.123 4.304 14.247 0 9.35-2.523 13.95-10.24 19.738-3.71 2.82-6.53 3.117-35.469 3.562l-31.314 0.445-6.975 6.53c-6.53 6.085-17.957 11.13-25.229 11.13-1.632 0-12.021 13.357-28.939 37.25-22.706 32.204-27.158 37.695-32.352 40.070-7.866 3.562-13.653 3.562-20.925-0.148zM206.284 281.043c-8.459-2.671-18.402-10.982-22.706-19.144-3.117-5.788-3.265-7.866-3.71-51.052-0.445-37.992-0.148-46.154 1.929-52.090 3.117-9.35 10.834-18.254 19.59-22.558 6.975-3.562 7.717-3.562 53.129-3.562 43.483 0 46.303 0.148 52.684 3.117 8.608 3.859 16.028 11.279 19.886 19.886 2.968 6.381 3.117 9.201 3.117 52.090v45.264l-4.452 8.904c-4.897 9.498-14.099 17.067-24.19 19.886-8.756 2.374-87.114 1.781-95.277-0.742zM411.084 281.934c-11.576-3.562-23.3-14.692-26.416-25.081-1.187-3.859-1.781-20.48-1.781-50.161 0-43.483 0.148-44.522 3.562-51.942 4.452-9.498 14.099-17.809 24.19-20.777 11.576-3.413 90.676-2.523 98.541 1.039 8.311 3.859 16.325 11.724 20.035 19.886 3.413 7.272 3.562 8.459 3.562 52.684 0 44.373-0.148 45.412-3.562 52.684-1.781 4.155-6.085 9.943-9.498 12.911-10.24 9.201-15.731 10.092-63.221 9.943-23.003 0-43.334-0.594-45.412-1.187z" />
<glyph unicode="&#xe902;" glyph-name="headphone" d="M453.738 957.175c-207.801-28.248-366.168-201.092-373.76-408.011l-1.059-28.778h122.35v16.949c0 109.815 70.621 219.277 173.903 269.948 161.721 79.095 354.869 4.767 423.548-162.781 13.948-34.074 22.246-73.975 22.246-107.167v-16.949h122.35l-1.059 28.778c-4.59 127.823-67.796 247.172-172.314 325.738-59.498 44.844-128.177 72.563-203.741 82.45-26.306 3.354-86.687 3.354-112.463-0.177zM372.171 598.952c-18.714-5.12-35.487-19.244-44.668-37.252l-5.297-10.417v-199.503l4.767-10.24c9.534-20.127 28.601-35.31 50.494-39.901 5.12-1.059 25.777-1.942 45.903-1.942h36.723l56.32-46.963c30.897-25.777 58.615-48.022 61.44-49.611 8.121-4.061 24.011-2.472 31.779 3.531 10.946 8.298 11.829 12.182 11.829 54.908v38.135h7.062c28.248 0 54.908 16.772 66.737 41.843l4.767 10.24v199.503l-5.297 10.417c-9.357 18.538-25.953 32.132-45.374 37.429-13.241 3.531-264.474 3.354-277.186-0.177zM561.964 477.308c12.182-4.943 19.95-19.774 17.126-32.132-2.119-9.181-6.886-15.007-15.89-19.597-7.415-3.884-9.71-4.061-52.083-4.061s-44.668 0.177-52.083 4.061c-17.655 9.004-21.892 28.778-9.357 43.785 8.298 9.71 11.123 10.24 61.087 10.417 34.604 0 46.786-0.53 51.2-2.472zM90.571 460.182c-12.888-2.119-30.897-9.181-42.019-16.596-21.010-13.948-39.548-39.901-45.727-63.735-4.061-15.713-4.237-160.662-0.177-176.375 9.887-38.488 41.313-69.914 79.801-79.448 8.828-2.295 19.774-2.648 55.614-2.295 42.902 0.53 44.844 0.706 50.141 4.414 3.001 2.295 7.062 7.062 8.828 10.593 3.178 6.356 3.354 14.301 3.884 166.135l0.353 159.25-50.67-0.177c-28.072-0.177-54.908-0.883-60.028-1.766zM821.319 302.874c0.53-151.834 0.706-159.779 3.884-166.135 1.766-3.531 5.826-8.298 8.828-10.593 5.297-3.708 7.239-3.884 50.141-4.414 35.84-0.353 46.786 0 55.614 2.295 38.488 9.534 69.914 40.96 79.801 79.448 4.061 15.713 3.884 160.662-0.177 176.375-6.179 24.011-24.717 49.788-46.257 63.912-5.473 3.708-16.772 9.004-25.070 12.006l-15.007 5.473-56.143 0.53-55.967 0.706 0.353-159.603zM841.446 54.466c-1.412-11.299-7.239-19.597-16.949-24.364-7.768-4.061-8.651-4.061-77.859-4.061h-70.268l1.236-6.532c1.766-9.357 1.589-36.899-0.353-46.963l-1.412-8.474 77.33 0.53c74.858 0.706 77.859 0.883 87.923 4.59 37.076 13.771 58.439 41.843 62.146 81.214l1.236 12.712h-61.793l-1.236-8.651zM438.378 54.113c-12.359-4.767-25.777-17.126-31.779-29.484-4.414-8.828-4.943-12.006-4.943-26.836 0-13.418 0.706-18.361 3.884-25.070 5.12-11.123 16.949-23.658 27.895-29.308l8.828-4.767h137.71l8.828 4.767c10.946 5.65 22.775 18.185 27.895 29.308 3.178 6.709 3.884 11.652 3.884 25.070 0 14.83-0.53 18.008-4.943 26.836-6.179 12.535-19.421 24.717-32.309 29.484-9.181 3.531-13.241 3.708-72.739 3.531-58.615 0-63.735-0.177-72.21-3.531z" />
<glyph unicode="&#xe903;" glyph-name="icon2" horiz-adv-x="908" d="M56.045 954.871c0.57-3.040 14.059-48.445 30.017-101.26l28.877-95.941 425.558-0.95 30.017 100.31c16.528 55.095 29.827 100.69 29.827 101.64 0 0.76-68.013 1.33-151.035 1.33h-150.845l-1.14-39.516-11.969 7.409c-22.988 13.869-58.514 26.217-86.632 30.017-8.169 1.14-43.696 2.090-79.412 2.090h-64.594l1.33-5.129zM818.25 942.902c-30.207-7.979-60.034-17.098-66.494-20.138-17.668-8.359-37.616-28.117-46.735-46.545-9.689-19.188-12.349-32.297-11.019-54.905 1.9-37.236 22.228-69.343 54.525-86.252 17.098-9.119 31.727-12.539 52.245-12.539 31.347 0 54.715 9.689 75.993 31.157 21.658 21.848 32.677 49.965 30.777 78.652-0.95 16.148-29.637 125.958-32.677 125.578-0.95-0.19-26.597-6.839-56.614-15.009zM599.012 686.807c-29.447-33.057-53.765-60.984-53.955-62.124-0.38-1.71 203.47-119.308 204.8-117.978 0.38 0.19 12.539 35.717 27.167 78.652l26.407 78.272h-7.219c-23.748 0-57.944 10.259-82.262 24.888-16.528 9.689-41.796 33.627-50.915 48.065-3.61 5.699-7.409 10.449-8.549 10.449-0.95 0-26.027-27.167-55.475-60.224zM127.668 663.249c0.76-30.587 1.33-36.096 5.319-46.165 8.359-21.848 21.658-37.426 40.656-48.255 20.518-11.779 20.138-11.779 160.154-11.209l126.908 0.57 11.019 4.37c23.938 9.689 45.406 31.917 53.385 55.475 3.040 8.359 3.8 17.478 4.56 45.216l0.76 34.577h-403.521l0.76-34.577zM0 477.447v-210.879h178.583v119.688c0 112.849-0.19 119.688-3.42 119.688-1.71 0-12.159 4.37-22.988 9.689-17.288 8.359-22.228 11.969-37.236 27.167-34.197 34.007-46.355 65.924-46.545 122.348v23.178h-68.393v-210.879zM872.015 683.767c-1.71-4.75-67.443-197.201-81.122-238.047l-8.359-24.888-16.338 9.309c-8.929 5.129-17.098 9.119-18.238 8.739-1.9-0.57-98.030-163.574-99.55-168.894-0.95-3.23 6.079-3.42 129.377-3.42h130.327v421.759h-17.098c-16.338 0-17.288-0.19-18.998-4.56zM478.753 460.159l-57.944-99.17-0.57 68.773-0.38 68.583h-182.382v-231.777h341.207l56.804 97.081c31.347 53.575 58.134 99.17 59.274 101.64 2.47 4.18 0.57 5.319-76.183 49.015-43.316 24.698-79.412 44.836-80.362 44.836-0.76 0-27.547-44.646-59.464-98.98zM0 138.33v-71.243h359.065v-68.393h-60.794v-62.694h303.97v62.694h-60.794v68.393h366.664v142.486h-908.111v-71.243zM478.753 32.891v-34.197h-58.894v68.393h58.894v-34.197z" />
<glyph unicode="&#xe904;" glyph-name="megaphone" horiz-adv-x="1061" d="M850.564 958.131c-2.492-1.039-5.4-3.323-6.854-4.985-3.531-4.154-14.955-46.319-14.955-55.043 0-9.762 7.893-17.032 18.278-17.032 9.97 0 16.201 5.4 19.109 17.24 1.454 4.777 4.154 15.163 6.439 23.263 2.077 7.893 3.946 17.032 3.946 20.148 0 11.424-15.163 20.978-25.963 16.409zM596.122 943.591c-21.186-6.854-30.741-15.786-53.381-49.642-74.152-111.747-171.982-213.731-274.382-285.598-9.347-6.647-18.071-13.916-19.109-15.994-5.4-9.97-2.7-15.37 56.081-117.355 31.987-55.458 58.989-102.815 60.028-105.516 2.7-6.854-2.492-17.655-9.347-20.355-7.685-2.908-15.578 0.623-20.563 9.139-2.285 3.739-29.079 50.058-59.612 103.231-30.741 53.173-57.327 97.83-59.197 99.284-9.347 6.854-15.786 3.946-94.092-41.334-41.749-24.094-79.76-46.734-84.745-50.681-12.047-9.347-20.563-20.355-28.248-36.349-5.608-11.839-6.439-15.994-7.062-35.31-0.623-17.24 0-24.51 3.323-34.48 4.154-13.501 92.222-168.243 106.346-186.937 16.201-21.602 46.734-36.141 75.606-36.141 27.417 0 32.61 2.285 136.464 62.312 118.809 68.544 160.974 88.691 244.68 116.316 87.653 29.079 189.637 48.396 279.575 52.966 39.257 2.077 54.419 7.893 71.244 27.002 12.255 13.916 17.863 29.287 17.655 49.85 0 11.009-1.246 19.525-3.531 24.925-6.231 14.54-253.404 441.379-260.258 449.48-3.531 4.362-12.462 11.009-19.732 14.747-11.839 6.439-14.955 7.062-32.818 7.685-10.801 0.208-22.017-0.208-24.925-1.246zM985.574 821.874c-14.747-8.516-28.248-17.032-29.495-19.109-5.816-7.685-1.869-23.471 7.062-27.417 8.931-4.154 13.916-2.492 41.542 13.501 27.417 15.994 31.779 20.148 31.779 31.156 0 7.27-10.593 17.447-18.071 17.447-3.531 0-16.617-6.231-32.818-15.578zM807.984 787.602c-5.193-5.193-7.062-12.878-4.777-19.317 0.831-2.7 15.37-28.664 32.402-57.951 32.818-56.704 35.31-59.82 48.811-56.704 11.009 2.285 13.916 7.685 14.54 28.041 1.039 22.848-2.077 37.595-11.424 56.497-18.071 35.933-64.182 64.805-79.552 49.434zM989.728 643.661c-4.154-3.531-5.608-6.647-5.608-12.255 0-14.747 2.7-16.824 35.726-25.548 23.886-6.231 29.079-6.439 36.141-0.831 4.362 3.323 5.4 6.024 5.4 13.293 0 13.501-3.946 16.617-30.118 23.886-27.625 7.477-34.272 7.685-41.542 1.454zM329.217 167.387c-30.741-17.863-57.951-34.272-60.235-36.349-9.139-8.931-7.062-14.332 39.257-94.299 23.679-41.126 45.696-78.098 48.811-82.045 3.323-3.946 10.801-9.762 16.824-12.878 9.139-4.985 13.293-5.816 27.21-5.816 14.124 0 18.278 0.831 28.871 6.231 25.548 12.878 47.565 27.21 54.835 35.518 12.67 14.955 17.24 38.218 10.801 56.081-4.57 13.086-88.899 157.65-94.299 161.804-2.7 2.285-7.477 4.154-10.593 4.154s-28.456-13.501-61.482-32.402z" />
<glyph unicode="&#xe905;" glyph-name="monitor" horiz-adv-x="1147" d="M57.687 957.683c-22.009-3.707-42.165-18.766-51.895-38.226-4.633-9.035-4.633-15.986-5.329-387.591l-0.463-378.324 4.865-11.584c6.719-15.522 26.411-33.361 41.933-37.995 10.657-3.012 72.514-3.475 526.595-3.475 452.228 0 516.17 0.463 526.364 3.475 15.29 4.633 34.288 21.546 41.47 37.068l5.56 11.584v375.544c0 423.037 1.622 388.054-18.302 408.21-12.51 12.974-23.167 18.534-41.47 21.314-15.986 2.78-1013.806 2.548-1029.329 0zM1058.751 541.828v-318.552h-970.715v637.104h970.715v-318.552zM879.435 672.261c-20.619-5.56-35.91-31.044-32.666-53.748l1.39-9.499-37.763-33.824c-20.851-18.534-46.798-41.701-57.687-51.432l-19.924-17.839-8.34 3.475c-11.352 4.633-23.862 4.402-35.91-1.158l-9.962-4.633-113.057 95.45 1.158 9.499c4.17 29.654-16.912 52.59-47.957 52.59-18.534 0-31.739-7.182-40.543-22.009-5.097-8.804-5.792-12.51-5.097-25.252l0.695-14.595-86.646-66.954c-47.725-36.836-95.45-73.672-106.107-81.781l-19.229-14.827-9.267 4.17c-6.95 3.012-12.51 3.707-22.241 2.78-17.607-1.853-28.728-9.499-36.605-25.021-7.877-16.217-7.877-28.264 0.463-44.018 5.097-9.962 8.804-13.669 18.766-18.766 33.824-17.607 69.502 3.707 69.966 41.47v13.437l24.789 19.692c64.405 50.968 158.233 125.104 171.207 135.298 14.132 10.889 14.132 10.889 21.314 7.414 7.645-4.17 26.874-4.865 35.91-1.39 5.329 1.853 10.425-1.853 64.637-47.493l58.845-49.81 1.158-12.742c1.39-16.217 10.425-29.886 25.021-37.763 8.572-4.402 12.974-5.329 24.789-4.633 26.874 1.622 45.408 21.777 44.481 47.493l-0.695 12.047 59.54 53.517c51.663 46.335 60.235 53.053 63.942 50.968 7.877-4.17 28.033-2.78 39.153 2.548 18.534 9.035 28.959 33.129 23.399 53.748-6.719 25.948-34.288 41.006-60.93 33.593zM376.471 3.186l-67.186-67.186h527.986l-7.877 8.804c-4.402 4.633-34.056 34.983-66.027 67.186l-57.919 58.382h-261.792l-67.186-67.186z" />
<glyph unicode="&#xe906;" glyph-name="pay" horiz-adv-x="1431" d="M55.451 956.303c-21.996-7.948-37.707-22.735-48.427-45.47l-6.1-12.754v-698.686l5.915-12.569c10.536-22.181 32.531-40.11 56.191-45.47 4.436-1.109 20.887-2.033 36.413-2.033h28.095v275.408c0 244.725 0.37 277.071 2.957 289.825 12.384 60.257 61.551 108.684 123.102 121.253 12.754 2.588 63.954 2.957 494.071 2.957h480.023l-0.739 33.825c-0.555 29.759-1.109 34.934-4.991 44.176-6.1 15.711-18.299 31.053-31.607 39.925-21.626 14.602 32.531 13.308-577.432 13.308-540.095-0.185-547.489-0.185-557.47-3.697zM260.806 753.721c-14.787-3.882-26.617-11.090-37.892-22.92-19.593-20.517-23.29-32.901-23.29-78.926v-33.825h1231.203l-0.555 39.37-0.555 39.186-6.1 12.569c-7.209 14.602-21.256 29.574-34.749 36.783-21.256 11.46 21.256 10.721-574.66 10.536-468.748 0-544.716-0.37-553.404-2.773zM199.625 496.982v-48.982h1231.018v97.964h-1231.018v-48.982zM199.625 190.336c0-174.856 0.185-184.283 3.512-195.004 1.848-6.1 5.545-14.787 8.133-19.038 7.024-12.014 23.659-26.801 37.707-33.456l12.569-5.915h1107.177l12.384 5.915c21.811 10.351 39.001 29.944 46.025 52.494 3.327 10.721 3.512 19.778 3.512 195.004v183.729h-1231.018v-183.729zM1100.338 276.84c7.394-1.664 21.071-6.654 30.498-11.090l17.005-8.318 17.19 8.503c37.707 18.669 77.632 18.669 114.969 0.185 27.91-13.863 46.025-31.607 60.072-58.778 25.877-49.536 17.744-109.239-20.517-150.088-42.513-45.47-105.542-56.191-159.7-27.171l-13.123 7.024-6.284-4.436c-3.512-2.403-12.754-6.654-20.332-9.612-36.783-14.048-74.12-11.645-109.978 6.839-19.038 9.981-43.991 35.304-54.342 55.266-19.408 37.892-20.517 80.219-2.957 117.926 25.692 55.821 87.983 86.874 147.5 73.75zM1055.238 204.939c-19.223-6.284-35.858-22.735-40.664-40.295-1.109-4.251-1.664-14.417-1.294-22.55 0.924-17.56 7.024-30.683 18.669-40.849 13.123-11.090 22.365-14.417 41.034-14.417 20.702-0.185 29.019 3.327 45.84 18.853 21.811 20.332 36.968 20.147 58.963-0.739 14.787-14.232 24.399-18.114 43.991-18.299 13.493 0 17.19 0.739 26.062 5.175 12.384 5.915 24.399 18.299 29.944 30.498 5.915 13.123 5.545 34.934-0.739 48.427-6.654 14.417-14.972 23.105-28.28 29.574-19.223 9.427-43.067 7.948-60.996-3.882-4.806-3.327-9.981-7.948-11.645-10.351-4.991-7.578-17.19-13.493-28.095-13.493-12.014 0-18.484 3.327-31.977 16.081-5.915 5.545-14.417 11.645-19.038 13.678-11.090 4.991-30.683 6.1-41.773 2.588z" />
<glyph unicode="&#xe907;" glyph-name="planning" d="M90.681 958.186c-4.743-1.535-44.225-38.226-72.824-67.662-13.811-14.090-16.462-18.973-16.462-30.553 0-19.81 14.509-33.901 34.459-33.901 10.324 0.14 18.694 3.767 27.344 12.277l6.557 6.417v-590.962l-7.534 6.417c-9.905 8.371-16.323 11.021-26.786 11.021-10.603-0.14-19.252-3.767-25.53-10.882-6.278-7.254-8.51-12.974-8.51-22.322 0-14.928 1.953-17.578 44.504-58.873 41.574-40.318 44.085-42.271 58.036-42.271s16.602 1.953 57.059 41.295c41.434 40.318 45.48 45.48 45.48 58.036 0 20.647-13.811 34.877-33.901 35.017-10.463 0.14-18.555-3.209-27.762-11.44l-6.696-5.999v590.683l8.231-7.534c9.487-8.929 16.881-11.579 29.297-10.603 21.624 1.535 35.156 21.903 29.437 44.085-1.535 5.999-4.883 9.766-41.016 45.201-21.484 21.345-41.434 39.9-44.085 41.155-5.999 2.93-22.461 3.767-29.297 1.395zM291.993 956.512c-3.906-2.093-8.789-5.72-10.882-8.371-8.231-10.882-7.673 15.067-7.673-366.073 0-314.175 0.279-350.448 2.232-356.307 2.651-7.952 13.253-18.276 20.926-20.368 3.627-0.977 31.669-1.535 82.45-1.535h77.009l0.419 87.612c0.419 86.635 0.419 87.472 3.488 93.053 13.253 24.693 47.433 24.833 59.71 0.279l3.488-7.115v-173.829h237.166c209.822 0 237.864 0.279 242.328 2.093 8.51 3.627 14.509 9.068 17.997 16.602l3.348 7.115v396.765l-177.875 0.837-6.557 3.209c-23.717 11.719-25.53 42.969-3.348 56.78l6.836 4.185 180.944 0.698v120.257c0 85.938-0.419 121.652-1.535 125.419-2.372 7.673-9.068 15.067-17.16 18.834l-7.115 3.348h-475.030v-267.858h88.031c62.919 0 89.705-0.419 93.471-1.674 7.115-2.093 15.904-9.766 19.671-17.020 6.557-12.695 1.814-30.971-10.324-39.342-10.603-7.394-12.835-7.534-105.33-7.534h-85.519v-106.864l-3.488-7.115c-12.277-24.554-46.457-24.414-59.71 0.279l-3.069 5.58-0.419 220.844-0.279 220.704h-157.088l-7.115-3.488zM228.796 136.475c-8.092-2.93-8.371-3.209-47.712-41.434-28.181-27.623-38.505-38.505-40.737-43.248-3.767-8.371-3.767-21.066 0.14-28.599 2.79-5.301 63.616-66.965 76.87-77.846 7.813-6.557 13.951-8.371 25.391-7.673 17.997 0.977 30.274 12.835 31.669 30.832 0.977 10.882-2.093 18.555-10.742 28.041l-5.999 6.417h646.766l-6.557-6.975c-8.231-8.789-10.603-14.369-10.603-25.391 0-20.787 15.625-34.459 37.389-32.924 4.464 0.279 10.463 1.814 13.253 3.209 8.231 4.325 79.66 74.777 83.148 82.032 1.953 4.046 2.93 8.789 2.93 14.369 0 14.649-2.651 17.997-44.364 58.734-20.647 19.95-39.621 37.528-42.132 38.784s-8.231 2.79-12.695 3.069c-20.926 1.953-37.528-12.835-37.528-33.343 0-10.742 2.79-17.020 11.579-25.809l7.115-7.394h-649.556l7.534 8.092c7.813 8.51 10.882 15.486 10.882 24.693 0 23.019-24.275 40.179-46.038 32.366z" />
<glyph unicode="&#xe908;" glyph-name="team" horiz-adv-x="1179" d="M554.357 956.725c-40.174-7.423-76.636-26.2-105.675-54.584-39.519-38.646-60.479-84.933-63.754-141.046-4.803-85.588 40.392-163.753 116.155-200.652 35.371-17.249 71.614-23.799 108.513-19.65 28.82 3.275 43.449 7.423 68.339 19.65 75.763 36.899 120.959 115.064 116.155 200.652-3.275 56.113-24.235 102.4-63.754 141.046-46.287 45.414-112.662 65.938-175.98 54.584zM208.512 763.278c-52.183-7.642-99.78-45.414-120.085-95.413-30.349-74.89 3.057-166.373 73.798-200.87 24.672-12.227 41.702-16.157 69.213-16.157 27.292 0.218 42.576 3.712 66.593 15.72 32.969 16.157 54.584 38.427 71.178 73.143 11.79 24.235 15.939 46.287 14.629 76.418-3.493 75.763-58.078 136.679-132.094 147.377-17.030 2.402-25.109 2.402-43.231-0.218zM925.53 763.497c-56.986-8.952-104.365-49.781-123.36-105.893-7.642-23.144-9.607-57.641-4.367-82.968 6.768-32.969 28.602-69.649 53.274-89.518 15.065-12.009 42.576-25.982 60.479-30.567 17.685-4.803 54.803-4.803 73.143 0 77.728 19.65 128.6 98.688 115.064 178.6-6.55 37.772-20.96 65.064-48.907 91.046-17.904 16.594-42.357 30.349-64.628 35.807-16.375 4.367-45.414 5.895-60.698 3.493zM455.232 496.034c-56.986-10.48-104.583-49.344-127.29-104.147-13.537-32.314-13.755-35.371-13.1-244.319l0.655-189.080 6.332-8.078c11.572-15.284-5.24-14.41 267.681-14.41s256.109-0.873 267.681 14.41l6.332 8.078 0.655 189.080c0.655 208.948 0.437 212.005-13.1 244.319-22.925 55.239-70.523 93.885-128.382 104.365-22.925 4.148-244.974 3.93-267.463-0.218zM134.059 404.333c-66.811-14.41-120.522-72.706-131.657-143.011-3.057-18.559-3.275-224.45-0.218-240.389 5.677-30.13 29.039-61.353 55.458-73.798 21.834-10.262 30.349-11.135 117.247-11.135h80.785l-1.528 5.022c-0.873 2.62-2.402 8.297-3.275 12.445-2.838 11.79-2.402 382.963 0.437 403.050 1.31 9.17 4.585 24.454 7.205 33.842l5.022 17.249-58.078-0.218c-39.737 0-62.226-1.092-71.396-3.057zM920.508 390.359c2.62-9.388 5.895-24.672 7.205-33.842 2.838-20.087 3.275-391.26 0.437-403.050-0.873-4.148-2.402-9.825-3.275-12.445l-1.528-5.022h80.785c86.898 0 95.413 0.873 117.247 11.135 26.419 12.445 49.781 43.667 55.458 73.798 3.057 15.939 2.838 221.83-0.218 240.389-9.388 59.388-49.344 111.133-103.055 133.841-25.764 10.699-38.646 12.445-101.090 12.445h-56.986l5.022-17.249z" />
<glyph unicode="&#xe909;" glyph-name="web" d="M65.331 956.733c-14.913-4.403-25.991-11.22-37.779-22.866-11.646-11.646-19.031-24.144-23.15-39.199-2.983-10.51-2.983-12.214-2.983-274.392v-263.882h1022.58v263.882c0 262.178 0 263.882-2.983 274.392-4.119 15.055-11.504 27.553-23.15 39.199s-24.144 19.031-39.199 23.15l-10.652 2.983-872.033-0.142-10.652-3.125zM348.955 772.243c3.693-2.414 7.101-6.391 9.516-11.22l3.693-7.527v-65.047c0-71.012 0-71.012-8.237-79.818-2.13-2.272-6.391-5.255-9.516-6.675-5.255-2.414-10.51-2.698-71.155-2.698h-65.331l-7.527 3.693c-4.829 2.414-8.806 5.823-11.22 9.516l-3.835 5.823-0.426 68.598c-0.284 65.331-0.284 68.74 2.414 73.853 2.983 6.107 7.385 10.368 13.634 13.776 3.693 1.988 12.356 2.13 73.285 1.846l68.882-0.284 5.823-3.835zM584.575 774.515c6.675-3.125 14.345-12.072 16.191-18.889 0.994-3.977 1.42-26.843 1.136-70.018l-0.426-64.337-3.551-6.391c-1.988-3.409-6.391-8.237-9.658-10.652l-6.249-4.261h-138.616l-6.249 4.261c-3.267 2.414-7.669 7.243-9.658 10.652l-3.551 6.391-0.426 64.337c-0.284 43.176 0.142 66.042 1.136 70.018 0.852 3.125 3.835 8.095 6.533 11.078 9.232 10.368 6.391 10.084 81.238 10.084 58.798 0 67.888-0.284 72.149-2.272zM824.881 774.089c6.107-3.125 10.368-7.527 13.634-14.060 2.13-4.119 2.272-11.788 1.988-73.143l-0.426-68.598-3.835-5.823c-2.414-3.693-6.391-7.101-11.22-9.516l-7.527-3.693h-65.331c-60.219 0-65.9 0.284-71.155 2.698-7.101 3.125-14.345 11.22-16.333 18.179-1.136 3.693-1.42 26.133-1.136 70.87l0.426 65.474 4.261 6.817c2.84 4.545 6.391 7.953 10.51 10.226l6.249 3.267h67.32c63.343 0 67.604-0.142 72.575-2.698zM346.541 533.925c3.409-1.988 8.237-6.249 10.51-9.658 9.232-13.066 3.977-33.376-10.368-41.045l-6.249-3.267h-67.32c-59.224 0-67.888 0.284-71.865 2.272-10.794 5.397-16.617 14.771-16.617 26.275 0 8.664 2.698 14.771 9.090 21.020 8.806 8.664 9.232 8.664 81.096 8.237l65.331-0.284 6.391-3.551zM586.847 533.499c7.101-4.119 12.924-12.214 14.629-20.452 1.42-6.959-2.556-18.747-8.095-24.144-9.8-9.232-6.959-8.948-80.67-8.948s-70.87-0.284-80.67 8.948c-5.539 5.397-9.516 17.185-8.095 24.144 2.272 10.936 10.936 20.452 21.73 23.718 2.13 0.71 33.234 1.136 69.166 0.994l65.331-0.284 6.675-3.977zM819.91 536.624c6.533-1.846 15.481-9.516 18.605-16.049 6.391-13.492 0.142-30.819-13.634-37.921-4.971-2.556-9.232-2.698-72.575-2.698h-67.32l-6.249 3.267c-9.374 4.971-14.771 14.487-14.771 25.849 0 13.35 6.675 22.298 20.31 27.127 6.675 2.414 127.112 2.84 135.634 0.426zM242.863 688.022v-30.535h61.071v61.071h-61.071v-30.535zM481.465 688.022v-30.535h62.491v61.071h-62.491v-30.535zM721.487 688.022v-30.535h61.071v61.071h-61.071v-30.535zM1.42 275.724c0-25.564 1.562-33.66 9.516-49.993 7.385-15.339 23.86-31.53 40.193-39.625 21.872-10.794-14.060-9.942 461.581-9.942 363.158 0 428.489 0.284 438.147 1.988 33.376 5.965 62.491 33.234 71.012 66.752 1.42 5.681 2.13 15.481 2.13 30.819v22.44h-1022.58v-22.44zM373.526 117.082c0-0.426 6.391-13.492 14.202-29.115s14.202-28.689 14.202-28.973c0-0.426-19.599-0.852-43.602-1.136-43.034-0.568-43.886-0.568-54.112-4.261-27.127-9.8-46.442-28.831-56.81-56.242-3.125-8.095-3.693-11.93-3.693-25.422-0.142-15.339 0-15.907 4.119-21.872 2.414-3.267 7.101-7.527 10.51-9.374l6.249-3.267h496.235l6.249 3.267c3.409 1.846 8.237 6.107 10.51 9.374 4.119 5.965 4.261 6.533 4.119 21.872 0 13.492-0.568 17.327-3.693 25.422-5.255 13.918-11.93 24.428-21.872 34.37-10.226 10.226-20.594 16.759-34.938 21.872-10.226 3.693-11.078 3.693-53.969 4.261-24.144 0.284-43.744 0.71-43.744 1.136 0 0.284 6.391 13.35 14.202 28.973s14.202 28.689 14.202 29.115c0 0.426-62.633 0.71-139.184 0.71s-139.184-0.284-139.184-0.71z" />
<glyph unicode="&#xe90a;" glyph-name="write" horiz-adv-x="1026" d="M66.587 957.48c-29.154-8.278-54.529-33.833-62.268-63.168-3.599-13.317-3.599-879.308 0-892.626 7.918-29.874 33.293-55.249 63.168-63.168 7.379-1.98 65.687-2.52 317.818-2.52 304.321 0 309.18 0 320.697 3.599 29.874 9.178 54.169 35.993 60.468 66.227 1.26 6.119 1.98 39.052 1.98 92.322v82.964l-21.956-21.056c-12.238-11.698-24.655-23.036-27.895-25.555-7.918-6.119-188.243-90.162-200.301-93.402-53.989-14.217-109.599 29.334-109.779 85.663 0 6.479 1.080 16.377 2.52 21.776 2.34 8.818 70.546 157.649 87.103 189.683 5.759 11.518 17.996 24.295 138.393 144.872l131.914 132.454v132.454c0 89.622-0.72 135.693-1.98 142.172-6.299 30.234-30.594 57.049-60.468 66.227-11.518 3.599-16.017 3.599-321.597 3.419-242.413-0.18-311.519-0.72-317.818-2.34zM617.639 763.838c7.918-2.34 18.536-13.497 20.336-21.596 3.419-15.297-7.019-30.774-23.036-34.193-6.659-1.44-73.966-1.8-235.214-1.44l-225.856 0.54-6.839 4.319c-21.236 13.137-16.737 45.171 7.559 52.37 7.199 2.34 455.131 2.16 463.050 0zM524.778 602.050c22.496-10.258 23.575-40.132 1.98-52.010-5.399-2.879-18.896-3.059-183.024-3.599-118.777-0.36-180.145 0.18-186.264 1.44-15.657 3.239-25.375 15.657-23.935 30.594 1.080 10.798 7.019 19.256 16.557 23.575 7.019 3.239 15.657 3.419 187.343 3.419 171.327 0 180.325-0.18 187.343-3.419zM430.116 441.341c10.258-5.399 14.757-11.698 15.837-22.676 1.080-11.338-4.319-21.596-14.037-27.175-6.659-3.779-7.559-3.779-142.532-3.779h-135.873l-6.119 4.139c-10.258 6.839-14.577 15.117-13.857 25.735 0.9 11.518 6.659 19.796 16.557 24.295 7.019 3.239 14.577 3.419 139.653 3.419h132.454l7.918-3.959zM889.926 649.021c-8.278-4.139-16.917-11.698-38.153-33.114l-27.535-27.535 68.027-67.847 67.847-68.027 27.895 27.715c34.913 34.733 36.893 38.153 36.893 64.067 0 16.377-0.54 19.976-4.319 26.995-5.939 11.338-64.607 70.186-76.485 76.665-7.918 4.319-11.698 5.219-26.275 5.759-16.017 0.54-17.817 0.18-27.895-4.679zM665.87 430.183l-115.897-116.077-41.932-89.622c-45.171-96.641-45.351-97.001-38.333-111.038 5.219-10.798 14.397-16.377 26.815-16.377 9.358 0 16.377 2.879 98.261 41.212l88.183 41.212 15.297 14.577c8.458 7.918 61.368 60.108 117.877 115.897l102.4 101.14-67.307 67.487c-37.073 37.073-67.847 67.487-68.387 67.487s-53.090-52.19-116.977-115.897z" />
<glyph unicode="&#xe90b;" glyph-name="analytics" horiz-adv-x="883" d="M304.193 958.055c-6.544-2.653-10.611-8.666-10.611-16.271 0-8.312 3.891-14.502 10.965-16.978 7.605-2.653 265.816-2.653 273.42 0 6.897 2.299 10.965 8.489 10.965 16.625s-4.068 14.325-10.965 16.625c-7.251 2.476-267.407 2.476-273.774 0zM127.514 858.484c-9.727-5.306-11.849-18.747-4.421-27.413l4.598-5.483h627.134l4.598 5.483c7.428 8.843 5.306 22.284-4.421 27.413-7.074 3.537-620.944 3.714-627.487 0zM51.288 725.488c-24.937-6.721-44.568-28.12-49.52-53.941-2.299-12.203-2.476-519.428 0-531.808 5.129-27.59 27.59-50.050 55.002-55.179 12.38-2.476 756.593-2.476 768.973 0 27.413 5.129 49.874 27.59 55.002 55.179 2.299 12.203 2.299 519.605 0 531.808-4.068 22.107-21.577 43.507-41.915 51.819l-10.258 4.068-383.779 0.354c-333.728 0.354-385.017 0-393.506-2.299zM608.564 632.108c36.432-2.83 57.125-4.952 59.601-6.544 8.312-5.306 8.489-6.367 3.537-70.212l-4.598-59.424-5.483-4.952c-8.666-7.782-18.924-6.19-24.053 3.891-2.476 4.775-2.476 8.843 0 39.97 1.592 18.924 2.653 36.079 2.299 38.024-0.354 2.653-16.978-9.55-81-59.601-44.214-34.487-82.415-63.668-84.714-64.553s-6.013-1.061-8.312-0.354c-2.122 0.707-29.712 21.753-61.016 46.513-31.48 24.76-58.186 45.275-59.424 45.629s-24.053-20.339-50.581-45.983c-66.675-64.553-65.437-63.315-72.511-63.315-10.788 0-18.393 11.496-14.325 21.753 1.238 3.537 124.33 122.208 129.636 124.861 2.299 1.238 6.013 1.769 8.666 1.061 2.476-0.531 30.419-21.577 62.077-46.69 31.657-24.937 58.54-45.983 59.778-46.69 1.238-0.884 29.358 19.985 71.627 52.88 38.201 29.712 71.096 55.71 73.042 57.478 3.183 3.007 3.183 3.36 0.354 3.36-12.557 0-76.756 5.836-79.232 7.251-4.068 2.122-8.666 10.611-8.666 15.74 0 2.122 2.299 6.19 5.129 9.020 6.367 6.367 4.598 6.367 78.171 0.884zM640.398 415.635l5.129-5.659v-223.193l-12.203-12.203-85.068 1.061-4.775 4.952-4.952 4.775v113.011c0 110.535 0 113.011 3.537 116.902 1.945 2.122 5.129 4.598 7.074 5.483 1.945 0.707 22.107 1.238 44.745 1.061l41.384-0.354 5.129-5.836zM490.070 378.318l5.129-5.129v-189.944l-10.258-10.258h-85.599l-10.258 10.258v94.441c0 102.223-0.177 100.101 9.55 103.992 1.945 0.884 22.284 1.592 44.922 1.592l41.384 0.177 5.129-5.129zM334.966 331.982c9.727-4.421 10.081-7.782 9.55-80.293l-0.531-66.321-4.952-4.775-4.775-4.952-85.068-1.061-12.203 12.203v67.029c0.177 71.45 0.354 72.865 9.020 77.64 5.659 3.183 82.238 3.537 88.959 0.531zM571.247 298.556v-90.197h42.446v180.394h-42.446v-90.197zM420.919 279.986v-71.627h40.677v143.254h-40.677v-71.627zM268.822 255.226v-46.867h42.446v93.734h-42.446v-46.867zM667.988 69.35c-11.319-10.081-13.087-12.557-11.319-14.679 10.258-13.264 100.985-114.957 103.107-115.841 17.863-6.897 33.072 13.264 21.577 28.297-3.183 4.068-88.075 101.162-97.802 111.773-1.769 1.945-4.598 0.177-15.563-9.55zM151.92 23.367c-27.59-30.773-51.112-57.655-52.35-59.778-5.129-9.020-1.415-20.692 7.959-25.114 12.203-5.836 14.325-4.068 71.096 59.247 28.12 31.48 51.288 57.832 51.112 58.363-0.177 1.415-23.699 21.93-25.821 22.638-0.884 0.354-24.229-24.583-51.996-55.356z" />
<glyph unicode="&#xe90c;" glyph-name="chat-box" d="M297.811 957.799c-83.475-15.404-146.265-76.433-164.603-160.348-4.548-20.685-4.548-59.415 0-80.541 9.242-42.544 27.727-76.287 58.242-105.921 22.739-22.152 47.532-37.41 76.727-47.092 27.14-8.949 29.634-9.242 94.918-9.829l60.149-0.587 33.009-44.892c22.446-30.368 34.916-46.065 38.73-48.706 4.988-3.228 7.335-3.814 17.018-3.814s12.030 0.587 17.018 3.814c3.814 2.641 16.284 18.338 38.73 48.706l33.009 44.892 60.149 0.587c65.284 0.587 67.778 0.88 94.918 9.829 29.194 9.683 53.987 24.94 76.727 47.092 30.515 29.634 48.999 63.377 58.242 105.921 4.548 21.126 4.548 59.856 0 80.541-8.656 39.904-27.434 74.819-54.574 102.4-26.847 27.14-56.775 44.452-94.918 54.721l-17.311 4.695-207.587 0.293c-170.764 0.147-209.495-0.147-218.59-1.76zM722.815 835.741c11.883-6.455 18.485-20.392 15.111-32.568-1.907-7.335-8.802-15.404-16.284-19.365-5.428-2.787-10.563-2.787-209.641-2.787s-204.213 0-209.641 2.787c-25.233 12.91-21.712 46.065 5.721 54.574 2.054 0.587 94.771 1.027 206.12 0.88l202.453-0.293 6.162-3.228zM605.598 723.952c14.67-7.629 20.392-24.060 13.203-38.29-4.548-8.802-11.883-14.23-21.566-16.138-10.563-1.907-159.908-1.907-170.471 0-28.314 5.428-33.449 41.224-7.922 54.721 3.814 2.054 15.111 2.347 92.864 2.494 84.062 0 88.756-0.147 93.891-2.787zM225.926 524.14c-67.631-4.695-129.394-50.613-154.040-114.577-2.494-6.308-4.401-11.736-4.401-12.177s77.9-0.734 173.112-0.734c137.462 0 173.112 0.44 173.112 1.907 0 5.135-11.296 29.488-20.245 43.571-25.087 39.61-69.391 69.832-115.457 78.927-17.164 3.521-32.862 4.401-52.080 3.081zM766.533 523.993c-58.829-4.108-115.603-41.664-143.477-94.918-6.748-12.763-12.763-27.287-12.763-30.515 0-1.467 18.045-1.907 85.089-1.907h85.089l15.404 12.47c16.871 13.79 22.593 16.871 31.835 16.871 10.563 0 17.898-4.841 27.287-17.751l8.362-11.59h46.505c25.673 0 46.652 0.293 46.652 0.734 0 2.934-9.829 25.38-15.257 34.769-22.886 40.197-57.802 69.098-100.346 83.328-23.619 7.775-46.946 10.563-74.379 8.509zM814.946 350.148c-13.057-11.443-4.988-10.709-115.163-10.709h-98.292v-3.961c0-7.189 4.254-31.688 7.335-42.985 3.961-14.377 16.724-40.491 26.26-53.841 43.865-61.763 121.765-89.783 195.411-69.978 57.948 15.404 105.187 60.149 124.406 117.364 4.988 14.67 8.949 35.503 8.949 46.212v7.189h-60.883c-68.071 0-67.338-0.147-76.873 10.123l-5.281 5.868-5.868-5.281zM60.149 332.25c0-28.314 15.111-69.832 35.209-96.825 73.499-98.439 222.405-96.825 293.556 3.228 9.536 13.35 22.299 39.464 26.26 53.841 3.081 11.296 7.335 35.796 7.335 42.985v3.961h-362.361v-7.189zM69.538 159.432c-35.209-35.649-58.389-80.834-66.751-129.247-2.494-14.817-2.934-22.886-2.494-46.946 0.44-28.021 0.587-29.341 3.961-34.329 1.907-2.787 5.868-6.748 8.656-8.656l5.281-3.521 443.195-0.734 5.868 3.374c3.081 1.76 7.775 6.162 10.269 9.536 4.401 6.308 4.401 6.455 4.841 29.341 0.734 34.182-2.787 59.415-12.177 87.73-11.296 33.889-33.449 69.685-58.389 94.185l-7.922 7.775-9.389-7.922c-13.497-11.59-31.688-23.326-49.146-31.982l-15.257-7.482v-17.164c0-31.395-7.189-49.88-27.14-69.978-13.79-14.084-26.7-20.979-46.065-24.793-44.452-8.949-89.93 20.099-102.107 65.284-1.32 4.401-2.641 17.018-3.228 27.874l-0.88 19.805-15.551 7.629c-17.605 8.509-31.248 17.311-46.652 29.928l-10.563 8.802-8.362-8.509zM609.412 157.084c-18.632-19.365-30.808-36.676-42.985-61.029-17.605-34.916-25.087-69.098-25.087-114.283 0-28.901 2.641-35.943 16.431-42.985 5.281-2.641 12.030-2.787 224.899-2.787 183.381 0 220.204 0.293 224.165 2.054 5.721 2.494 13.497 10.416 15.551 15.991 2.934 7.482 2.054 57.215-1.32 76.727-8.215 47.972-31.542 93.158-66.604 128.66l-8.362 8.509-10.563-8.802c-15.404-12.617-29.048-21.419-46.652-29.928l-15.551-7.629-0.88-19.805c-0.587-10.856-1.907-23.473-3.228-27.874-3.961-15.111-12.030-28.754-23.179-40.050-27.727-28.021-66.457-34.622-102.253-17.605-8.509 4.108-13.79 8.069-22.739 17.164-19.952 20.099-27.14 38.583-27.14 69.978v17.164l-15.257 7.482c-17.018 8.362-35.796 20.539-47.826 30.808-4.401 3.814-8.802 7.335-9.683 7.922s-6.162-3.668-11.736-9.683zM209.788 100.309c0-20.832 13.203-35.209 32.422-35.209 7.775 0 19.365 6.455 24.206 13.497 3.521 4.988 4.254 7.775 4.841 17.018l0.44 10.856-3.374-1.174c-4.401-1.467-50.76-1.467-55.161 0-3.081 1.027-3.374 0.587-3.374-4.988zM752.743 95.615c0.734-13.79 5.281-21.272 16.431-26.847 22.299-11.15 45.038 4.841 45.038 31.542 0 5.575-0.293 6.015-3.228 4.988-4.548-1.467-50.907-1.467-55.308 0l-3.374 1.174 0.44-10.856z" />
<glyph unicode="&#xe90d;" glyph-name="envelope" d="M512.48 356.448l-130.304 106.976-283.584-334.816h828.032l-283.616 338.144-130.528-110.304zM957.632 767.392h-890.080l445.056-374.336 445.024 374.336zM662.56 483.616l297.312-354.688v606.464l-297.312-251.776zM64.128 735.392v-606.464l297.312 354.688-297.312 251.776z" />
<glyph unicode="&#xe90e;" glyph-name="checkmark" d="M512 864c-229.76 0-416-186.24-416-416s186.24-416 416-416 416 186.24 416 416-186.24 416-416 416zM744.256 566.176l-303.552-303.52c-7.616-7.584-19.936-7.584-27.552 0l-6.112 6.112-0.032-0.032-167.008 168.192c-7.616 7.616-7.616 19.968 0 27.584l41.408 41.376c7.616 7.616 19.968 7.616 27.584 0l118.048-118.912 248.192 248.192c7.616 7.616 19.968 7.616 27.584 0l41.408-41.408c7.648-7.584 7.648-19.936 0.032-27.584z" />
<glyph unicode="&#xe90f;" glyph-name="twitter" horiz-adv-x="951" d="M925.714 717.714c-25.143-36.571-56.571-69.143-92.571-95.429 0.571-8 0.571-16 0.571-24 0-244-185.714-525.143-525.143-525.143-104.571 0-201.714 30.286-283.429 82.857 14.857-1.714 29.143-2.286 44.571-2.286 86.286 0 165.714 29.143 229.143 78.857-81.143 1.714-149.143 54.857-172.571 128 11.429-1.714 22.857-2.857 34.857-2.857 16.571 0 33.143 2.286 48.571 6.286-84.571 17.143-148 91.429-148 181.143v2.286c24.571-13.714 53.143-22.286 83.429-23.429-49.714 33.143-82.286 89.714-82.286 153.714 0 34.286 9.143 65.714 25.143 93.143 90.857-112 227.429-185.143 380.571-193.143-2.857 13.714-4.571 28-4.571 42.286 0 101.714 82.286 184.571 184.571 184.571 53.143 0 101.143-22.286 134.857-58.286 41.714 8 81.714 23.429 117.143 44.571-13.714-42.857-42.857-78.857-81.143-101.714 37.143 4 73.143 14.286 106.286 28.571z" />
<glyph unicode="&#xe910;" glyph-name="instagram" horiz-adv-x="878" d="M585.143 438.857c0 80.571-65.714 146.286-146.286 146.286s-146.286-65.714-146.286-146.286 65.714-146.286 146.286-146.286 146.286 65.714 146.286 146.286zM664 438.857c0-124.571-100.571-225.143-225.143-225.143s-225.143 100.571-225.143 225.143 100.571 225.143 225.143 225.143 225.143-100.571 225.143-225.143zM725.714 673.143c0-29.143-23.429-52.571-52.571-52.571s-52.571 23.429-52.571 52.571 23.429 52.571 52.571 52.571 52.571-23.429 52.571-52.571zM438.857 798.857c-64 0-201.143 5.143-258.857-17.714-20-8-34.857-17.714-50.286-33.143s-25.143-30.286-33.143-50.286c-22.857-57.714-17.714-194.857-17.714-258.857s-5.143-201.143 17.714-258.857c8-20 17.714-34.857 33.143-50.286s30.286-25.143 50.286-33.143c57.714-22.857 194.857-17.714 258.857-17.714s201.143-5.143 258.857 17.714c20 8 34.857 17.714 50.286 33.143s25.143 30.286 33.143 50.286c22.857 57.714 17.714 194.857 17.714 258.857s5.143 201.143-17.714 258.857c-8 20-17.714 34.857-33.143 50.286s-30.286 25.143-50.286 33.143c-57.714 22.857-194.857 17.714-258.857 17.714zM877.714 438.857c0-60.571 0.571-120.571-2.857-181.143-3.429-70.286-19.429-132.571-70.857-184s-113.714-67.429-184-70.857c-60.571-3.429-120.571-2.857-181.143-2.857s-120.571-0.571-181.143 2.857c-70.286 3.429-132.571 19.429-184 70.857s-67.429 113.714-70.857 184c-3.429 60.571-2.857 120.571-2.857 181.143s-0.571 120.571 2.857 181.143c3.429 70.286 19.429 132.571 70.857 184s113.714 67.429 184 70.857c60.571 3.429 120.571 2.857 181.143 2.857s120.571 0.571 181.143-2.857c70.286-3.429 132.571-19.429 184-70.857s67.429-113.714 70.857-184c3.429-60.571 2.857-120.571 2.857-181.143z" />
<glyph unicode="&#xe911;" glyph-name="facebook, facebook-f" horiz-adv-x="602" d="M548 944v-150.857h-89.714c-70.286 0-83.429-33.714-83.429-82.286v-108h167.429l-22.286-169.143h-145.143v-433.714h-174.857v433.714h-145.714v169.143h145.714v124.571c0 144.571 88.571 223.429 217.714 223.429 61.714 0 114.857-4.571 130.286-6.857z" />
<glyph unicode="&#xe912;" glyph-name="phone" horiz-adv-x="805" d="M804.571 242.286c0-20.571-9.143-60.571-17.714-79.429-12-28-44-46.286-69.714-60.571-33.714-18.286-68-29.143-106.286-29.143-53.143 0-101.143 21.714-149.714 39.429-34.857 12.571-68.571 28-100 47.429-97.143 60-214.286 177.143-274.286 274.286-19.429 31.429-34.857 65.143-47.429 100-17.714 48.571-39.429 96.571-39.429 149.714 0 38.286 10.857 72.571 29.143 106.286 14.286 25.714 32.571 57.714 60.571 69.714 18.857 8.571 58.857 17.714 79.429 17.714 4 0 8 0 12-1.714 12-4 24.571-32 30.286-43.429 18.286-32.571 36-65.714 54.857-97.714 9.143-14.857 26.286-33.143 26.286-50.857 0-34.857-103.429-85.714-103.429-116.571 0-15.429 14.286-35.429 22.286-49.143 57.714-104 129.714-176 233.714-233.714 13.714-8 33.714-22.286 49.143-22.286 30.857 0 81.714 103.429 116.571 103.429 17.714 0 36-17.143 50.857-26.286 32-18.857 65.143-36.571 97.714-54.857 11.429-5.714 39.429-18.286 43.429-30.286 1.714-4 1.714-8 1.714-12z" />
<glyph unicode="&#xe913;" glyph-name="angle-down" horiz-adv-x="658" d="M614.286 530.286c0-4.571-2.286-9.714-5.714-13.143l-266.286-266.286c-3.429-3.429-8.571-5.714-13.143-5.714s-9.714 2.286-13.143 5.714l-266.286 266.286c-3.429 3.429-5.714 8.571-5.714 13.143s2.286 9.714 5.714 13.143l28.571 28.571c3.429 3.429 8 5.714 13.143 5.714 4.571 0 9.714-2.286 13.143-5.714l224.571-224.571 224.571 224.571c3.429 3.429 8.571 5.714 13.143 5.714s9.714-2.286 13.143-5.714l28.571-28.571c3.429-3.429 5.714-8.571 5.714-13.143z" />
<glyph unicode="&#xe914;" glyph-name="angle-up" horiz-adv-x="658" d="M614.286 274.286c0-4.571-2.286-9.714-5.714-13.143l-28.571-28.571c-3.429-3.429-8-5.714-13.143-5.714-4.571 0-9.714 2.286-13.143 5.714l-224.571 224.571-224.571-224.571c-3.429-3.429-8.571-5.714-13.143-5.714s-9.714 2.286-13.143 5.714l-28.571 28.571c-3.429 3.429-5.714 8.571-5.714 13.143s2.286 9.714 5.714 13.143l266.286 266.286c3.429 3.429 8.571 5.714 13.143 5.714s9.714-2.286 13.143-5.714l266.286-266.286c3.429-3.429 5.714-8.571 5.714-13.143z" />
<glyph unicode="&#xe915;" glyph-name="angle-right" horiz-adv-x="347" d="M340 402.286c0-4.571-2.286-9.714-5.714-13.143l-266.286-266.286c-3.429-3.429-8.571-5.714-13.143-5.714s-9.714 2.286-13.143 5.714l-28.571 28.571c-3.429 3.429-5.714 8-5.714 13.143 0 4.571 2.286 9.714 5.714 13.143l224.571 224.571-224.571 224.571c-3.429 3.429-5.714 8.571-5.714 13.143s2.286 9.714 5.714 13.143l28.571 28.571c3.429 3.429 8.571 5.714 13.143 5.714s9.714-2.286 13.143-5.714l266.286-266.286c3.429-3.429 5.714-8.571 5.714-13.143z" />
<glyph unicode="&#xe916;" glyph-name="angle-left" horiz-adv-x="384" d="M358.286 640c0-4.571-2.286-9.714-5.714-13.143l-224.571-224.571 224.571-224.571c3.429-3.429 5.714-8.571 5.714-13.143s-2.286-9.714-5.714-13.143l-28.571-28.571c-3.429-3.429-8.571-5.714-13.143-5.714s-9.714 2.286-13.143 5.714l-266.286 266.286c-3.429 3.429-5.714 8.571-5.714 13.143s2.286 9.714 5.714 13.143l266.286 266.286c3.429 3.429 8.571 5.714 13.143 5.714s9.714-2.286 13.143-5.714l28.571-28.571c3.429-3.429 5.714-8 5.714-13.143z" />
<glyph unicode="&#xe917;" glyph-name="plus" horiz-adv-x="805" d="M804.571 530.286v-109.714c0-30.286-24.571-54.857-54.857-54.857h-237.714v-237.714c0-30.286-24.571-54.857-54.857-54.857h-109.714c-30.286 0-54.857 24.571-54.857 54.857v237.714h-237.714c-30.286 0-54.857 24.571-54.857 54.857v109.714c0 30.286 24.571 54.857 54.857 54.857h237.714v237.714c0 30.286 24.571 54.857 54.857 54.857h109.714c30.286 0 54.857-24.571 54.857-54.857v-237.714h237.714c30.286 0 54.857-24.571 54.857-54.857z" />
<glyph unicode="&#xe918;" glyph-name="search" horiz-adv-x="951" d="M658.286 475.428c0 141.143-114.857 256-256 256s-256-114.857-256-256 114.857-256 256-256 256 114.857 256 256zM950.857 0c0-40-33.143-73.143-73.143-73.143-19.429 0-38.286 8-51.429 21.714l-196 195.429c-66.857-46.286-146.857-70.857-228-70.857-222.286 0-402.286 180-402.286 402.286s180 402.286 402.286 402.286 402.286-180 402.286-402.286c0-81.143-24.571-161.143-70.857-228l196-196c13.143-13.143 21.143-32 21.143-51.429z" />
<glyph unicode="&#xe919;" glyph-name="workhome" d="M255.177 813.479c-134.009-80.669-246.287-149.814-249.25-153.435-3.622-4.28-5.927-12.512-5.927-21.073 0-11.853 1.646-15.805 10.207-22.719 5.597-4.939 14.158-8.561 19.426-8.561 6.256 0 81.327 43.462 242.665 140.594 128.082 77.376 236.080 140.594 239.702 140.594s111.619-63.218 239.702-140.594c161.338-97.132 236.409-140.594 242.665-140.594 5.268 0 13.829 3.622 19.426 8.561 8.561 6.914 10.207 10.866 10.207 22.719 0 8.561-2.305 16.792-5.597 21.073-3.293 3.622-114.912 72.437-247.933 152.448-211.056 127.095-243.982 145.862-256.823 146.521-14.158 0.988-23.048-3.951-258.469-145.533zM323.663 685.397c-63.547-20.743-105.034-88.242-94.168-154.094 15.146-91.534 112.278-141.911 196.239-102.071 26.012 12.512 44.121 28.316 57.621 51.035 29.304 48.731 26.67 110.302-6.914 156.069-15.475 20.743-30.621 32.597-56.633 44.45-20.414 9.219-74.413 11.853-96.144 4.61zM536.695 491.792c-5.927-4.28-14.158-11.853-17.78-16.792-6.585-8.89-6.914-13.5-7.902-121.168l-0.988-111.619h385.564v106.351c0 103.717-0.329 106.68-7.244 120.839-4.28 7.902-11.853 17.451-16.792 21.073-9.219 6.585-13.829 6.914-166.606 7.902l-157.057 0.988-11.195-7.573zM199.203 404.538c-37.865-37.206-65.194-92.193-69.803-141.253l-1.976-21.073h326.956v67.498c0 37.206-0.659 67.498-1.646 67.498-0.659 0-13.17-3.951-26.999-8.89-36.219-12.183-84.291-12.512-118.534-0.329-29.963 10.536-51.035 23.048-70.462 41.158-8.232 7.902-15.805 14.158-16.792 14.158-0.659 0-10.207-8.561-20.743-18.768zM71.12 176.031c-11.853-14.158-11.524-29.963 0.988-42.804 8.561-8.232 12.183-9.549 27.987-9.549h18.439v-82.315c0-86.266 1.646-98.12 14.817-103.388 7.244-2.634 750.055-2.634 757.299 0 13.17 5.268 14.817 17.122 14.817 103.388v82.315h18.439c15.805 0 19.426 1.317 27.987 9.549 12.512 12.841 12.841 28.646 0.988 42.804l-8.561 10.207h-864.638l-8.561-10.207z" />
</font>
</defs>
</svg>
